<?xml version="1.0" encoding="UTF-8"?>
<svg version="1.1" xmlns="http://www.w3.org/2000/svg" width="570" height="416">
<path d="M0 0 C4.93048831 0.00754838 9.86089627 0.0048129 14.79138166 -0.00360358 C45.82526699 -0.05510501 76.81138233 -0.07430801 107.7760008 2.25713861 C109.5669769 2.3908587 109.5669769 2.3908587 111.39413434 2.52728021 C118.76039243 3.09489229 126.1123999 3.77052087 133.4635008 4.50713861 C135.07145017 4.6652099 135.07145017 4.6652099 136.71188337 4.82647455 C152.37128166 6.37386123 167.99293778 8.16200345 183.5885008 10.25713861 C184.46420728 10.37061639 185.33991376 10.48409418 186.2421568 10.60101068 C202.22191724 12.69533568 216.06175735 15.68334018 228.7760008 26.25713861 C229.43857892 26.77018548 230.10115705 27.28323236 230.7838133 27.81182611 C232.16575555 28.89809699 233.48170775 30.06778824 234.7760008 31.25713861 C234.7760008 31.91713861 234.7760008 32.57713861 234.7760008 33.25713861 C235.4360008 33.25713861 236.0960008 33.25713861 236.7760008 33.25713861 C266.79842875 69.82669721 262.00062113 138.361924 261.9635008 183.13213861 C261.96323392 183.80428022 261.96296705 184.47642183 261.96269208 185.16893137 C261.95252709 205.60431317 261.72610419 225.9000248 259.7760008 246.25713861 C259.63488184 247.77649146 259.49394059 249.29586083 259.35314924 250.81524408 C252.23599909 326.76978166 252.23599909 326.76978166 229.3385008 347.50713861 C213.1045431 360.60499084 193.73927111 362.47955354 173.7135008 364.81963861 C171.226256 365.11983499 168.73903301 365.42021203 166.25183088 365.72076166 C131.53746826 369.85555295 96.69790836 372.6632647 61.7760008 374.25713861 C59.9504466 374.34390863 59.9504466 374.34390863 58.08801252 374.43243158 C-10.8898042 377.58778983 -79.88943554 374.02897247 -148.47106951 366.55529535 C-151.08481292 366.27221321 -153.6991415 365.99556844 -156.31384295 365.72149408 C-200.02023202 361.12012009 -200.02023202 361.12012009 -215.2239992 350.25713861 C-216.62005389 349.28840814 -216.62005389 349.28840814 -218.0443117 348.30010736 C-233.81319509 336.4624637 -240.52314409 320.30045241 -243.28739947 301.25639093 C-243.65241259 298.61218264 -244.00177922 295.96623774 -244.3489992 293.31963861 C-244.60328181 291.45970432 -244.85808982 289.5998418 -245.1134035 287.74004877 C-248.74970046 260.87435457 -251.397456 233.9349188 -251.3568117 206.80791986 C-251.35748863 205.17715698 -251.35846185 203.5463942 -251.35971087 201.91563165 C-251.36117171 198.52140075 -251.35908736 195.12719645 -251.3543703 191.73296869 C-251.34869604 187.44799091 -251.3520568 183.16307543 -251.35778731 178.8780998 C-251.38623123 154.21705979 -250.80347099 129.96128119 -247.9114992 105.44463861 C-247.80039813 104.48967493 -247.68929705 103.53471124 -247.57482928 102.55080926 C-240.84725241 44.89747398 -240.84725241 44.89747398 -218.2239992 25.25713861 C-208.57888113 18.05434657 -198.56887594 14.06129119 -186.7239992 12.25713861 C-185.69830828 12.09471673 -184.67261737 11.93229486 -183.61584491 11.76495111 C-162.73931888 8.5619435 -141.70261734 6.41756209 -120.68460101 4.38848627 C-118.98966651 4.22440931 -117.2949583 4.05796687 -115.6005556 3.88848627 C-109.14835575 3.24797929 -102.69096663 2.72462035 -96.2239992 2.25713861 C-94.98866442 2.1674682 -93.75332965 2.07779779 -92.48056048 1.98541009 C-61.68694311 -0.17723055 -30.85149548 -0.05271469 0 0 Z " fill="#F8C61A" transform="translate(283.22399920225143,16.74286139011383)"/>
<path d="M0 0 C16.17 0 32.34 0 49 0 C49 70.62 49 141.24 49 214 C32.83 214 16.66 214 0 214 C0 143.38 0 72.76 0 0 Z " fill="#030200" transform="translate(327,96)"/>
<path d="M0 0 C16.17 0 32.34 0 49 0 C49 70.29 49 140.58 49 213 C33.16 213 17.32 213 1 213 C-0.80482107 211.19517893 -0.12262093 208.72483343 -0.12908131 206.32221836 C-0.12616847 205.50025016 -0.12325563 204.67828196 -0.12025452 203.83140564 C-0.12110894 202.96483811 -0.12196337 202.09827059 -0.12284368 201.20544344 C-0.12450115 198.27878749 -0.11897278 195.35218785 -0.11352539 192.42553711 C-0.11324355 190.33674623 -0.11340119 188.24795525 -0.1139679 186.15916443 C-0.11425599 180.46931386 -0.1083573 174.77948417 -0.10139394 169.08963847 C-0.09516243 163.15054475 -0.09455676 157.21145061 -0.09336853 151.27235413 C-0.09025461 140.01718838 -0.08204042 128.76203229 -0.07201904 117.50687081 C-0.06085977 104.69693543 -0.05534792 91.8869996 -0.05032361 79.07706058 C-0.03985785 52.71803379 -0.02151162 26.35902025 0 0 Z " fill="#030200" transform="translate(201,97)"/>
<path d="M0 0 C17.16 0 34.32 0 52 0 C52.02254401 27.88486467 52.04097741 55.76972201 52.05181217 83.65459347 C52.05697589 96.60103112 52.06402003 109.54746272 52.07543945 122.49389648 C52.08538398 133.77355073 52.09185287 145.05320059 52.09408849 156.3328591 C52.095396 162.30935906 52.09848433 168.28584649 52.10573006 174.26234245 C52.11248663 179.8805608 52.11461771 185.49876139 52.11310768 191.11698341 C52.11338417 193.18547538 52.11539144 195.2539679 52.11920547 197.32245636 C52.12413705 200.13348582 52.12300028 202.94444706 52.12025452 205.75547791 C52.12316736 206.585228 52.1260802 207.41497809 52.12908131 208.26987213 C52.11412121 213.88587879 52.11412121 213.88587879 51 215 C49.44000952 215.09846967 47.87559456 215.12798618 46.3125 215.12939453 C45.31476563 215.13254669 44.31703125 215.13569885 43.2890625 215.13894653 C42.20367187 215.1369223 41.11828125 215.13489807 40 215.1328125 C38.89398438 215.13376923 37.78796875 215.13472595 36.6484375 215.13571167 C34.30468692 215.13639367 31.96093447 215.13453804 29.6171875 215.13037109 C26.01558212 215.12502314 22.41410147 215.13031547 18.8125 215.13671875 C16.54166639 215.13605797 14.27083286 215.13477682 12 215.1328125 C10.91460937 215.13483673 9.82921875 215.13686096 8.7109375 215.13894653 C7.71320313 215.13579437 6.71546875 215.13264221 5.6875 215.12939453 C4.80449219 215.12859894 3.92148438 215.12780334 3.01171875 215.12698364 C1 215 1 215 0 214 C-0.09787909 211.24361485 -0.12993232 208.51229161 -0.12025452 205.75547791 C-0.12110894 204.88074328 -0.12196337 204.00600865 -0.12284368 203.10476691 C-0.12450117 200.15047207 -0.11897273 197.19623303 -0.11352539 194.24194336 C-0.11324355 192.1334483 -0.11340119 190.02495314 -0.1139679 187.91645813 C-0.114256 182.17289034 -0.10835726 176.42934324 -0.10139394 170.68578029 C-0.09516246 164.69063212 -0.09455677 158.69548354 -0.09336853 152.70033264 C-0.0902546 141.33891904 -0.08204039 129.977515 -0.07201904 118.61610562 C-0.0608598 105.68525354 -0.05534793 92.75440102 -0.05032361 79.82354534 C-0.03985783 53.21569036 -0.02151159 26.6078485 0 0 Z M2 1 C1.97745595 28.62409706 1.95902256 56.2481867 1.94818783 83.87229061 C1.94302412 96.69765997 1.93598 109.52302323 1.92456055 122.34838867 C1.91461599 133.52256749 1.90814712 144.69674189 1.90591151 155.87092501 C1.90460401 161.79153367 1.90151571 167.71212968 1.89426994 173.6327343 C1.88751332 179.19842304 1.8853823 184.76409385 1.88689232 190.3297863 C1.88661583 192.37892758 1.88460859 194.42806943 1.88079453 196.47720718 C1.87586287 199.2619625 1.87699975 202.04664893 1.87974548 204.83140564 C1.87683264 205.65337384 1.8739198 206.47534203 1.87091869 207.32221836 C1.536279 210.96000618 1.536279 210.96000618 3 214 C18.84 214 34.68 214 51 214 C51 143.71 51 73.42 51 1 C34.83 1 18.66 1 2 1 Z " fill="#90750C" transform="translate(199,96)"/>
<path d="M0 0 C0.33 0 0.66 0 1 0 C6.13143437 36.79091831 9.21834063 72.67863133 9.1875 109.875 C9.18723312 110.54714161 9.18696625 111.21928322 9.18669128 111.91179276 C9.1765263 132.34717456 8.95010339 152.64288619 7 173 C6.85888104 174.51935285 6.71793979 176.03872222 6.57714844 177.55810547 C0.35430721 243.96853918 0.35430721 243.96853918 -9 258 C-10 255 -10 255 -8.66015625 252.2890625 C-8.11230469 251.20367187 -7.56445312 250.11828125 -7 249 C-6.40443384 246.47479946 -5.88560722 243.93049148 -5.4375 241.375 C-4.20384134 234.39123741 -4.20384134 234.39123741 -3.00439453 232.08911133 C-1.86324012 229.71554344 -1.52019776 227.7216509 -1.18359375 225.11328125 C-1.05919922 224.17419922 -0.93480469 223.23511719 -0.80664062 222.26757812 C-0.68482422 221.29240234 -0.56300781 220.31722656 -0.4375 219.3125 C-0.31181641 218.35666016 -0.18613281 217.40082031 -0.05664062 216.41601562 C0.30841694 213.61214418 0.65445577 210.80633107 1 208 C1.09716309 207.29456055 1.19432617 206.58912109 1.29443359 205.86230469 C2.38313895 197.43037227 2.35255791 188.89335566 2.55224609 180.40380859 C2.60397054 178.2612778 2.66114678 176.11894203 2.71875 173.9765625 C2.74904297 172.70893066 2.77933594 171.44129883 2.81054688 170.13525391 C3 167 3 167 4 164 C5.40845848 152.21730247 5.16359723 140.28597032 5.16796875 128.44140625 C5.1711925 126.36417113 5.17455736 124.28693622 5.17805481 122.20970154 C5.18401097 117.87034582 5.18589847 113.5310099 5.18530273 109.19165039 C5.18520158 103.69910931 5.19882099 98.20669887 5.21607494 92.71418858 C5.22733388 88.42495673 5.2292177 84.13575502 5.22869301 79.84650993 C5.22985361 77.82523081 5.23416362 75.8039504 5.24202538 73.78268623 C5.29212481 59.56704543 5.21645338 45.07664018 3 31 C2.67 30.67 2.34 30.34 2 30 C1.92680379 27.30345146 1.90757463 24.63308542 1.9375 21.9375 C1.94201172 21.17888672 1.94652344 20.42027344 1.95117188 19.63867188 C1.9629932 17.75908129 1.98092922 15.87953101 2 14 C1.34 14 0.68 14 0 14 C0 9.38 0 4.76 0 0 Z " fill="#FDF0AE" transform="translate(536,90)"/>
<path d="M0 0 C0.33 0 0.66 0 1 0 C0.60799039 10.8806569 0.13345975 21.74023092 -0.75056458 32.59326172 C-2.04316594 48.74010918 -2.35417492 64.80733089 -2.3125 81 C-2.31177066 82.34790029 -2.31127507 83.69580072 -2.31100464 85.04370117 C-2.29542421 106.69479607 -1.3971254 128.19414292 0.44805908 149.76757812 C0.95280798 155.85156852 1.23130895 161.93160616 1.46875 168.03125 C1.87313593 178.08868742 2.84913992 188.01188399 4.0625 198 C4.34391829 200.35799921 4.6230116 202.71622831 4.89830017 205.07495117 C5.06690577 206.51567866 5.23911738 207.95599105 5.41578674 209.39575195 C5.87642477 213.2872877 6.08162031 217.08222517 6 221 C5.67 221 5.34 221 5 221 C-0.28854838 185.64806838 -5.18647654 150.36747394 -5.1328125 114.55078125 C-5.13348943 112.92001837 -5.13446265 111.28925559 -5.13571167 109.65849304 C-5.1371725 106.26426214 -5.13508816 102.87005784 -5.13037109 99.47583008 C-5.12469685 95.19086755 -5.12805493 90.90596734 -5.13379192 86.62100697 C-5.16101185 62.98998373 -4.8084263 39.6716267 -1.9375 16.1875 C-1.74867984 14.59708451 -1.56052773 13.00658955 -1.37304688 11.41601562 C-0.9229837 7.60972588 -0.4641638 3.80459484 0 0 Z " fill="#F9DE79" transform="translate(37,109)"/>
<path d="M0 0 C0.33 0 0.66 0 1 0 C1.02350308 9.44285575 1.04110346 18.88570095 1.05181217 28.3285799 C1.05696007 32.71654123 1.06390398 37.10448209 1.07543945 41.49243164 C1.21596593 96.59056647 1.21596593 96.59056647 -1.8125 120.25 C-1.99107454 121.68968391 -2.16953899 123.12938147 -2.34790039 124.5690918 C-7.937943 168.98951566 -7.937943 168.98951566 -16 176 C-15.51649659 173.82423464 -14.94622687 171.87645513 -14.0546875 169.828125 C-12.55138587 165.79704951 -11.89646698 161.66599298 -11.14453125 157.43945312 C-10.19905045 152.38163919 -10.19905045 152.38163919 -9.00219727 150.08691406 C-7.86293182 147.71457764 -7.51995783 145.71979166 -7.18359375 143.11328125 C-7.05919922 142.17419922 -6.93480469 141.23511719 -6.80664062 140.26757812 C-6.68482422 139.29240234 -6.56300781 138.31722656 -6.4375 137.3125 C-6.31181641 136.35666016 -6.18613281 135.40082031 -6.05664062 134.41601562 C-5.69158306 131.61214418 -5.34554423 128.80633107 -5 126 C-4.90283691 125.29456055 -4.80567383 124.58912109 -4.70556641 123.86230469 C-3.61686105 115.43037227 -3.64744209 106.89335566 -3.44775391 98.40380859 C-3.39602946 96.2612778 -3.33885322 94.11894203 -3.28125 91.9765625 C-3.25095703 90.70893066 -3.22066406 89.44129883 -3.18945312 88.13525391 C-3 85 -3 85 -2 82 C-0.89896889 71.95759686 -0.80216176 61.84922036 -0.68359375 51.7578125 C-0.66295367 50.25324018 -0.64195576 48.74867273 -0.62062073 47.24411011 C-0.56612655 43.33494074 -0.5164054 39.4257256 -0.46777344 35.51647949 C-0.41701845 31.50703997 -0.36161792 27.49766471 -0.30664062 23.48828125 C-0.19995156 15.658909 -0.09831882 7.82948232 0 0 Z " fill="#F2CF49" transform="translate(542,172)"/>
<path d="M0 0 C0.66 0 1.32 0 2 0 C-3.44442482 11.91959027 -16.22098449 21.45956014 -28.09228516 26.24707031 C-41.06700888 30.62814586 -54.31968714 32.05060572 -67.875 33.625 C-70.37930329 33.92591906 -72.88353468 34.22743706 -75.38769531 34.52954102 C-89.15713944 36.1727604 -102.93699032 37.70830622 -116.75 38.9375 C-118.05308105 39.05367676 -119.35616211 39.16985352 -120.69873047 39.28955078 C-128.14874577 39.90069649 -135.52604772 40.13143847 -143 40 C-143 39.67 -143 39.34 -143 39 C-127.36974715 37.12098622 -111.73505855 35.43636117 -96.05834961 34.00268555 C-94.80417236 33.88578369 -93.54999512 33.76888184 -92.2578125 33.6484375 C-91.1455127 33.54708496 -90.03321289 33.44573242 -88.88720703 33.34130859 C-86.48622664 33.05747885 -84.33195963 32.59442691 -82 32 C-80.36251179 31.81482005 -78.72112963 31.6624159 -77.078125 31.53515625 C-75.66273438 31.41817383 -75.66273438 31.41817383 -74.21875 31.29882812 C-72.25541716 31.1425365 -70.29187523 30.98884736 -68.328125 30.83789062 C-64.0539367 30.48074038 -59.93551289 30.08741146 -55.78125 28.9921875 C-51.91592412 27.97793877 -48.22073408 27.48110148 -44.25 27.0625 C-37.32704965 26.28187542 -30.71046778 24.90638289 -24 23 C-24 22.34 -24 21.68 -24 21 C-18 18 -18 18 -12 15 C-12 14.34 -12 13.68 -12 13 C-10.64453125 11.73828125 -10.64453125 11.73828125 -8.8125 10.3125 C-6.13603828 8.11823482 -4.12880963 5.99046601 -2.1875 3.125 C-1.465625 2.09375 -0.74375 1.0625 0 0 Z " fill="#FCEBA0" transform="translate(524,348)"/>
<path d="M0 0 C15.90244508 -0.04732481 31.80487027 -0.08227794 47.70736885 -0.10362434 C55.09595266 -0.11381193 62.48449155 -0.12768218 69.87304688 -0.15087891 C112.45828129 -0.28176805 154.60479217 0.57514982 197 5 C197 5.33 197 5.66 197 6 C179.53767175 5.60585992 162.11596904 5.127369 144.69848633 3.74853516 C124.36011304 2.17201311 103.98447876 1.83215965 83.59375 1.68359375 C81.16182158 1.66294863 78.72989614 1.64195066 76.29797363 1.62062073 C69.98541721 1.5661783 63.67283277 1.51643556 57.36022949 1.46777344 C50.88335767 1.41697926 44.40652508 1.36159974 37.9296875 1.30664062 C25.28649227 1.20001542 12.64326324 1.09821356 0 1 C0 0.67 0 0.34 0 0 Z " fill="#FBEAA9" transform="translate(226,17)"/>
<path d="M0 0 C0.87720703 0.00451172 1.75441406 0.00902344 2.65820312 0.01367188 C4.75133411 0.02510975 6.84442841 0.0430195 8.9375 0.0625 C8.9375 0.3925 8.9375 0.7225 8.9375 1.0625 C-6.75047668 3.35405327 -22.5452259 4.21535018 -38.35595703 5.23706055 C-51.51157294 6.09373397 -64.536204 7.12925321 -77.58282471 9.04632568 C-85.21199918 10.14743444 -92.72558302 10.59887061 -100.4375 10.75 C-101.67371094 10.78416016 -102.90992187 10.81832031 -104.18359375 10.85351562 C-107.14313798 10.93381334 -110.10246683 11.00361167 -113.0625 11.0625 C-113.0625 10.7325 -113.0625 10.4025 -113.0625 10.0625 C-91.40167379 7.36260476 -69.73644243 4.82709357 -48 2.8125 C-47.11855316 2.72995972 -46.23710632 2.64741943 -45.32894897 2.56237793 C-30.24827453 1.15778543 -15.15894183 -0.15652601 0 0 Z " fill="#FDEDA6" transform="translate(215.0625,17.9375)"/>
<path d="M0 0 C8.1097833 -0.24898457 15.96838318 0.70411058 24 1.75 C25.04830994 1.88488327 25.04830994 1.88488327 26.11779785 2.02249146 C31.08117309 2.66251009 36.04101224 3.32693484 41 4 C42.23298828 4.1654834 43.46597656 4.3309668 44.73632812 4.50146484 C60.32252185 6.63575519 74.39723732 8.79206158 87 19 C87.495 19.99 87.495 19.99 88 21 C84.83919812 19.94639937 82.78645536 18.82441885 80.1875 16.6875 C63.63428384 4.87373099 37.82499413 6.1528223 18.359375 5.2109375 C16 5 16 5 15 4 C12.48140772 3.4380482 9.97126697 2.92023227 7.4375 2.4375 C6.72658203 2.29892578 6.01566406 2.16035156 5.28320312 2.01757812 C3.52280068 1.67494946 1.76148203 1.33703447 0 1 C0 0.67 0 0.34 0 0 Z " fill="#FEF0A4" transform="translate(424,23)"/>
<path d="M0 0 C0.33 0 0.66 0 1 0 C1.06058594 1.14339844 1.12117187 2.28679687 1.18359375 3.46484375 C1.26798428 4.95574305 1.35263302 6.44662775 1.4375 7.9375 C1.47681641 8.69224609 1.51613281 9.44699219 1.55664062 10.22460938 C1.44038024 13.91944187 1.44038024 13.91944187 3 17 C5.41251738 32.22867652 5.27708337 47.87447488 5.1953125 63.24609375 C5.19156752 65.3655636 5.18872761 67.48503522 5.18673706 69.60450745 C5.17921722 75.0968023 5.15967374 80.58898593 5.1373291 86.08123779 C5.11661474 91.72015886 5.10768149 97.35909847 5.09765625 102.99804688 C5.07641286 113.99874593 5.04242391 124.99936361 5 136 C4.67 136 4.34 136 4 136 C3.98969254 134.89832489 3.97938507 133.79664978 3.96876526 132.66159058 C3.87096264 122.27380725 3.76822213 111.88608291 3.66066074 101.49839592 C3.60552224 96.15813086 3.55211689 90.81786024 3.50268555 85.47753906 C3.45490801 80.3227993 3.40256064 75.16812425 3.34705925 70.01346207 C3.32669628 68.04793029 3.30797339 66.08238081 3.29092598 64.11681747 C3.2667475 61.36150475 3.23671181 58.60631294 3.20532227 55.85107422 C3.1995668 55.04043015 3.19381134 54.22978607 3.18788147 53.39457703 C3.13306938 49.1551831 2.79967037 45.17917815 2 41 C1.8749466 39.29888699 1.78054362 37.59520864 1.71875 35.890625 C1.68136719 34.97152344 1.64398437 34.05242187 1.60546875 33.10546875 C1.53457991 31.18621912 1.4642767 29.26694777 1.39453125 27.34765625 C1.35714844 26.43371094 1.31976562 25.51976562 1.28125 24.578125 C1.25095703 23.74700195 1.22066406 22.91587891 1.18945312 22.05957031 C1.12002211 19.93720761 1.12002211 19.93720761 0 18 C-0.08308638 16.62451844 -0.10736016 15.24514204 -0.09765625 13.8671875 C-0.09443359 13.06152344 -0.09121094 12.25585938 -0.08789062 11.42578125 C-0.07951172 10.58402344 -0.07113281 9.74226563 -0.0625 8.875 C-0.05798828 8.02550781 -0.05347656 7.17601563 -0.04882812 6.30078125 C-0.03702874 4.20049091 -0.01909306 2.1002367 0 0 Z " fill="#EFC31D" transform="translate(537,104)"/>
<path d="M0 0 C0.33 0 0.66 0 1 0 C1.30816205 9.19105532 0.36511721 18.14907453 -0.75 27.25 C-0.88488327 28.36717911 -0.88488327 28.36717911 -1.02249146 29.50692749 C-6.7615738 76.83615113 -6.7615738 76.83615113 -15 84 C-14.51649659 81.82423464 -13.94622687 79.87645513 -13.0546875 77.828125 C-11.55138587 73.79704951 -10.89646698 69.66599298 -10.14453125 65.43945312 C-9.20047283 60.38924816 -9.20047283 60.38924816 -8 58.05834961 C-6.91756371 55.8303173 -6.54866985 54.01929306 -6.21875 51.5703125 C-6.10007568 50.70325684 -5.98140137 49.83620117 -5.85913086 48.94287109 C-5.68136108 47.5480249 -5.68136108 47.5480249 -5.5 46.125 C-5.37181885 45.15771973 -5.2436377 44.19043945 -5.11157227 43.19384766 C-4.10151047 35.3454202 -3.36801939 27.48371028 -2.70361328 19.59960938 C-2.13347517 12.9893823 -1.2916662 6.5132955 0 0 Z " fill="#FDF3B5" transform="translate(541,264)"/>
<path d="M0 0 C20.37376722 -0.21786541 40.54982241 -0.17468519 60.85693359 1.70898438 C64.15989848 2.01480496 67.46423528 2.29868373 70.76953125 2.578125 C76.18104914 3.03735747 81.59101227 3.51191203 87 4 C87 4.33 87 4.66 87 5 C69.41338732 4.60305471 51.88590631 4.04902766 34.34033203 2.73535156 C22.9032029 1.88602013 11.46088284 1.39492607 0 1 C0 0.67 0 0.34 0 0 Z " fill="#FCEB97" transform="translate(336,18)"/>
<path d="M0 0 C0.33 0 0.66 0 1 0 C1.08040527 0.62342285 1.16081055 1.2468457 1.24365234 1.88916016 C1.61980176 4.80123275 1.99717879 7.71314383 2.375 10.625 C2.51220459 11.68299805 2.64940918 12.74099609 2.79077148 13.83105469 C3.50535173 19.31131934 4.24714865 24.78388457 5.0625 30.25 C7.01955621 43.76999665 8.22550396 57.36479339 9 71 C8.67 71 8.34 71 8 71 C7.17831458 65.34869043 6.36065669 59.69681639 5.54638672 54.04443359 C5.27009188 52.1302194 4.99278379 50.21615113 4.71435547 48.30224609 C3.29757638 38.55869316 1.91891594 28.81561801 0.8125 19.03125 C0.7301712 18.31365509 0.64784241 17.59606018 0.5630188 16.85671997 C-0.04999852 11.22556116 -0.22430301 5.65742025 0 0 Z " fill="#FBEAA0" transform="translate(34,259)"/>
<path d="M0 0 C0 0.33 0 0.66 0 1 C-19.53055047 3.77322016 -39.26578444 5.49472964 -59 5 C-59 4.67 -59 4.34 -59 4 C-57.91460937 3.95101563 -56.82921875 3.90203125 -55.7109375 3.8515625 C-54.26560216 3.77648014 -52.82029081 3.70093472 -51.375 3.625 C-50.66214844 3.5940625 -49.94929687 3.563125 -49.21484375 3.53125 C-44.78491523 3.28740072 -41.22340837 2.43014887 -37 1 C-34.43171138 0.70473038 -31.94966342 0.4915185 -29.375 0.375 C-28.65513916 0.33705322 -27.93527832 0.29910645 -27.19360352 0.26000977 C-18.13437612 -0.16568222 -9.06623139 -0.08438064 0 0 Z " fill="#FAE48B" transform="translate(224,18)"/>
<path d="M0 0 C1.81242052 -0.02687279 3.62495233 -0.04633715 5.4375 -0.0625 C6.44683594 -0.07410156 7.45617187 -0.08570313 8.49609375 -0.09765625 C11 0 11 0 12 1 C13.32886073 1.14386104 14.66448587 1.22676288 16 1.28125 C16.804375 1.31863281 17.60875 1.35601562 18.4375 1.39453125 C19.283125 1.42933594 20.12875 1.46414063 21 1.5 C22.66684971 1.56860509 24.33353774 1.64130223 26 1.71875 C26.7425 1.74904297 27.485 1.77933594 28.25 1.81054688 C30 2 30 2 31 3 C32.9946903 3.29928809 34.99833124 3.53935637 37.00390625 3.75390625 C38.82631836 3.95209961 38.82631836 3.95209961 40.68554688 4.15429688 C41.96494141 4.28900391 43.24433594 4.42371094 44.5625 4.5625 C45.84576172 4.70107422 47.12902344 4.83964844 48.45117188 4.98242188 C51.63371616 5.32552144 54.81664414 5.66452788 58 6 C58 6.33 58 6.66 58 7 C47.33401863 7.57252783 36.99563074 6.14172243 26.4375 4.80078125 C20.44600866 4.04102987 14.44825744 3.39840785 8.4375 2.8125 C7.1525061 2.68705811 7.1525061 2.68705811 5.84155273 2.55908203 C3.89457213 2.37060572 1.9473196 2.18494097 0 2 C0 1.34 0 0.68 0 0 Z " fill="#F2CB38" transform="translate(128,379)"/>
<path d="M0 0 C-3.44502476 2.29668317 -5.6780561 2.51506748 -9.75 3.125 C-23.20502748 5.52774217 -33.35295854 12.55057019 -43 22 C-44.97148101 23.70570792 -46.97984113 25.35197566 -49 27 C-44.28320951 15.90916832 -31.58714214 8.23734711 -20.9375 3.6875 C-14.16068622 1.17716994 -7.2560748 -0.38189867 0 0 Z " fill="#FCEB9F" transform="translate(102,29)"/>
<path d="M0 0 C0.33 0 0.66 0 1 0 C1.06058594 1.14339844 1.12117187 2.28679687 1.18359375 3.46484375 C1.26798428 4.95574305 1.35263302 6.44662775 1.4375 7.9375 C1.47681641 8.69224609 1.51613281 9.44699219 1.55664062 10.22460938 C1.44038024 13.91944187 1.44038024 13.91944187 3 17 C3.53423821 20.3726805 3.7676246 23.78658553 4.0625 27.1875 C4.15192871 28.20658447 4.24135742 29.22566895 4.33349609 30.27563477 C5.18689674 40.85373902 5.20341504 51.3958176 5 62 C4.67 62 4.34 62 4 62 C2.76840318 50.19819361 1.75633216 38.44121105 1.34204102 26.5793457 C1.29454712 25.3277063 1.29454712 25.3277063 1.24609375 24.05078125 C1.22216553 23.31512939 1.1982373 22.57947754 1.17358398 21.8215332 C1.10102977 19.90177106 1.10102977 19.90177106 0 18 C-0.08308638 16.62451844 -0.10736016 15.24514204 -0.09765625 13.8671875 C-0.09443359 13.06152344 -0.09121094 12.25585938 -0.08789062 11.42578125 C-0.07951172 10.58402344 -0.07113281 9.74226563 -0.0625 8.875 C-0.05798828 8.02550781 -0.05347656 7.17601563 -0.04882812 6.30078125 C-0.03702874 4.20049091 -0.01909306 2.1002367 0 0 Z " fill="#EFC93C" transform="translate(537,104)"/>
<path d="M0 0 C11.74304309 -0.42701975 24.03685044 0.61474018 35 5 C31.11668968 6.33769559 27.33234777 5.9309827 23.3125 5.625 C22.27899414 5.55925781 22.27899414 5.55925781 21.22460938 5.4921875 C16.13162202 5.13162202 16.13162202 5.13162202 15 4 C12.48140772 3.4380482 9.97126697 2.92023227 7.4375 2.4375 C6.72658203 2.29892578 6.01566406 2.16035156 5.28320312 2.01757812 C3.52280068 1.67494946 1.76148203 1.33703447 0 1 C0 0.67 0 0.34 0 0 Z " fill="#FBE383" transform="translate(424,23)"/>
<path d="M0 0 C0.66 0 1.32 0 2 0 C2.18175781 0.65226562 2.36351562 1.30453125 2.55078125 1.9765625 C3.97973083 6.94491028 5.58794423 11.40560806 8 16 C8 16.66 8 17.32 8 18 C9.32 18 10.64 18 12 18 C14.30244417 21.09944408 15.59106835 24.43070649 17 28 C17.66 28.99 18.32 29.98 19 31 C14.90771558 29.45948646 12.6464666 26.55836164 10.0625 23.1875 C9.62373535 22.61725098 9.1849707 22.04700195 8.73291016 21.45947266 C4.2017738 15.31307789 0 7.79191426 0 0 Z " fill="#FBE89A" transform="translate(43,330)"/>
<path d="M0 0 C-2 2 -2 2 -5.4765625 2.1953125 C-6.85950968 2.18201493 -8.24238654 2.15816232 -9.625 2.125 C-10.33140625 2.11597656 -11.0378125 2.10695313 -11.765625 2.09765625 C-13.51056098 2.07407603 -15.25532295 2.03820461 -17 2 C-17 2.66 -17 3.32 -17 4 C-21.00395739 5.33465246 -24.89290462 5.37666235 -29.08984375 5.62109375 C-31.89347738 5.98613061 -33.54649774 6.68892673 -36 8 C-38.25 7.625 -38.25 7.625 -40 7 C-27.60412004 1.30330549 -13.54969326 -0.25092025 0 0 Z " fill="#F4D248" transform="translate(120,28)"/>
<path d="M0 0 C1.084021 0.04713135 2.16804199 0.0942627 3.28491211 0.14282227 C5.03964844 0.21533203 5.03964844 0.21533203 6.82983398 0.28930664 C8.67738281 0.37341797 8.67738281 0.37341797 10.56225586 0.45922852 C11.79782227 0.51143555 13.03338867 0.56364258 14.30639648 0.61743164 C17.37107777 0.74759185 20.43547199 0.88257197 23.49975586 1.02172852 C23.49975586 1.35172852 23.49975586 1.68172852 23.49975586 2.02172852 C16.11319173 3.01652559 8.88419941 3.14009134 1.43725586 3.08422852 C0.28547852 3.0797168 -0.86629883 3.07520508 -2.05297852 3.07055664 C-4.86878932 3.05887278 -7.68448812 3.04249132 -10.50024414 3.02172852 C-8.50024414 1.02172852 -8.50024414 1.02172852 -5.93774414 0.95922852 C-4.73118164 0.99016602 -4.73118164 0.99016602 -3.50024414 1.02172852 C-2.50024414 0.02172852 -2.50024414 0.02172852 0 0 Z " fill="#EEC323" transform="translate(332.500244140625,385.978271484375)"/>
<path d="M0 0 C0 0.33 0 0.66 0 1 C-0.96421875 1.06058594 -1.9284375 1.12117188 -2.921875 1.18359375 C-4.18515625 1.26738281 -5.4484375 1.35117187 -6.75 1.4375 C-8.00296875 1.51871094 -9.2559375 1.59992188 -10.546875 1.68359375 C-13.77362216 1.88667699 -13.77362216 1.88667699 -15.9453125 2.5 C-18.10888438 3.02649658 -20.10580259 3.20529013 -22.328125 3.31640625 C-23.12734375 3.35830078 -23.9265625 3.40019531 -24.75 3.44335938 C-25.575 3.48267578 -26.4 3.52199219 -27.25 3.5625 C-28.51070313 3.62727539 -28.51070313 3.62727539 -29.796875 3.69335938 C-31.86440671 3.79908543 -33.93218281 3.90001295 -36 4 C-28.88977694 -3.11022306 -9.43414626 -0.17083967 0 0 Z " fill="#F0C728" transform="translate(456,379)"/>
<path d="M0 0 C0.33 0 0.66 0 1 0 C1.85919793 8.45832629 -0.23012488 15.42839166 -4 23 C-5.66796875 24.87890625 -5.66796875 24.87890625 -7 26 C-6.51724931 23.82762189 -5.94831092 21.88117945 -5.05859375 19.8359375 C-3.77336613 16.39285538 -3.09773994 12.91412635 -2.4375 9.3125 C-1.12443096 2.24886191 -1.12443096 2.24886191 0 0 Z " fill="#F7DB7A" transform="translate(533,322)"/>
<path d="M0 0 C2.97 0.495 2.97 0.495 6 1 C6.33 2.32 6.66 3.64 7 5 C7.99 5 8.98 5 10 5 C10 5.66 10 6.32 10 7 C10.99 7 11.98 7 13 7 C13 7.66 13 8.32 13 9 C14.051875 9.1546875 14.051875 9.1546875 15.125 9.3125 C18.39137647 10.09359003 21.0471852 11.42058743 24 13 C20.44533782 14.18488739 19.36082122 13.50013305 16.11181641 11.90283203 C15.49741699 11.58427246 14.88301758 11.26571289 14.25 10.9375 C13.62399902 10.61894043 12.99799805 10.30038086 12.35302734 9.97216797 C7.64732704 7.50482836 3.77531861 4.77531861 0 1 C0 0.67 0 0.34 0 0 Z " fill="#FCEB9B" transform="translate(62,361)"/>
<path d="M0 0 C1.72880982 -0.05449838 3.45812712 -0.09301688 5.1875 -0.125 C6.15042969 -0.14820313 7.11335938 -0.17140625 8.10546875 -0.1953125 C11.15276483 0.01030802 13.22347142 0.77832743 16 2 C17.9924325 2.37593066 19.9918674 2.71979545 22 3 C22 3.33 22 3.66 22 4 C14.37404682 4.45755719 7.3970146 2.74536299 0 1 C0 0.67 0 0.34 0 0 Z " fill="#F1CD45" transform="translate(94,375)"/>
<path d="M0 0 C0.33 0 0.66 0 1 0 C1.06058594 1.14339844 1.12117187 2.28679687 1.18359375 3.46484375 C1.26798428 4.95574305 1.35263302 6.44662775 1.4375 7.9375 C1.47681641 8.69224609 1.51613281 9.44699219 1.55664062 10.22460938 C1.44038024 13.91944187 1.44038024 13.91944187 3 17 C3.07258946 19.18639453 3.08373783 21.37500389 3.0625 23.5625 C3.05347656 24.76003906 3.04445313 25.95757812 3.03515625 27.19140625 C3.02355469 28.11824219 3.01195312 29.04507813 3 30 C2.67 30 2.34 30 2 30 C1.93941406 29.30132812 1.87882813 28.60265625 1.81640625 27.8828125 C1.73261719 26.97273438 1.64882813 26.06265625 1.5625 25.125 C1.48128906 24.22007812 1.40007813 23.31515625 1.31640625 22.3828125 C1.13010715 19.98889139 1.13010715 19.98889139 0 18 C-0.08308638 16.62451844 -0.10736016 15.24514204 -0.09765625 13.8671875 C-0.09443359 13.06152344 -0.09121094 12.25585938 -0.08789062 11.42578125 C-0.07951172 10.58402344 -0.07113281 9.74226563 -0.0625 8.875 C-0.05798828 8.02550781 -0.05347656 7.17601563 -0.04882812 6.30078125 C-0.03702874 4.20049091 -0.01909306 2.1002367 0 0 Z " fill="#F3CF4C" transform="translate(537,104)"/>
<path d="M0 0 C0.99 0 1.98 0 3 0 C5.24122492 3.13771489 6.59202857 6.43313904 8 10 C8.99 11.485 8.99 11.485 10 13 C5.77551612 11.43537634 3.59903247 8.58245016 1 5 C0.1875 2.125 0.1875 2.125 0 0 Z " fill="#F7DD7A" transform="translate(52,348)"/>
<path d="M0 0 C0.58203125 1.859375 0.58203125 1.859375 1 4 C-0.3125 6.25 -0.3125 6.25 -2 8 C-2.66 8 -3.32 8 -4 8 C-4.103125 8.763125 -4.20625 9.52625 -4.3125 10.3125 C-5.05790616 13.22636046 -5.84458939 14.02950397 -8 16 C-6.25267359 9.73519555 -4.02879721 5.11766132 0 0 Z " fill="#FAE591" transform="translate(52,56)"/>
<path d="M0 0 C1.75215106 0.93347358 3.50163563 1.8719532 5.25 2.8125 C6.71179688 3.59560547 6.71179688 3.59560547 8.203125 4.39453125 C10.63355412 5.78965188 12.80787699 7.26195961 15 9 C14.67 9.66 14.34 10.32 14 11 C13.0925 10.360625 12.185 9.72125 11.25 9.0625 C8.60778619 7.38571047 7.0101501 6.46310002 4 6 C4 5.34 4 4.68 4 4 C3.34 4 2.68 4 2 4 C2 3.34 2 2.68 2 2 C1.34 2 0.68 2 0 2 C0 1.34 0 0.68 0 0 Z " fill="#F5D95D" transform="translate(503,39)"/>
<path d="M0 0 C0.33 0 0.66 0 1 0 C2.77410051 5.31531689 3.2577668 9.85618805 3.125 15.4375 C3.11597656 16.16904297 3.10695313 16.90058594 3.09765625 17.65429688 C3.07436153 19.43634298 3.0385019 21.21821759 3 23 C2.67 23 2.34 23 2 23 C1.93941406 22.00097656 1.87882813 21.00195312 1.81640625 19.97265625 C1.73261719 18.68230469 1.64882813 17.39195312 1.5625 16.0625 C1.48128906 14.77472656 1.40007813 13.48695312 1.31640625 12.16015625 C1.35080812 9.13976043 1.35080812 9.13976043 0 8 C-0.14115161 5.32941149 -0.04247107 2.67567762 0 0 Z " fill="#FAE597" transform="translate(538,112)"/>
<path d="M0 0 C0.66 0.33 1.32 0.66 2 1 C0.71937515 2.7074998 -0.61767557 4.37373596 -2 6 C-2.66 6 -3.32 6 -4 6 C-4 6.99 -4 7.98 -4 9 C-5.32 8.67 -6.64 8.34 -8 8 C-5.36 5.36 -2.72 2.72 0 0 Z " fill="#EFC72F" transform="translate(66,43)"/>
<path d="M0 0 C0.33 0 0.66 0 1 0 C1.22084624 6.09781001 1.01167675 11.21642935 -1 17 C-1.33 17 -1.66 17 -2 17 C-2.09765625 10.84765625 -2.09765625 10.84765625 -2 9 C-1.67 8.67 -1.34 8.34 -1 8 C-0.76924918 6.65252916 -0.58846937 5.29622435 -0.4375 3.9375 C-0.293125 2.638125 -0.14875 1.33875 0 0 Z " fill="#F2C223" transform="translate(533,312)"/>
<path d="M0 0 C1 3 1 3 0.00390625 5.48046875 C-0.47175781 6.37378906 -0.94742188 7.26710938 -1.4375 8.1875 C-1.91058594 9.08855469 -2.38367188 9.98960937 -2.87109375 10.91796875 C-3.24363281 11.60503906 -3.61617187 12.29210937 -4 13 C-5 10 -5 10 -4.00390625 7.51953125 C-3.52824219 6.62621094 -3.05257812 5.73289062 -2.5625 4.8125 C-2.08941406 3.91144531 -1.61632812 3.01039063 -1.12890625 2.08203125 C-0.75636719 1.39496094 -0.38382813 0.70789063 0 0 Z " fill="#FEEFAC" transform="translate(531,335)"/>
<path d="M0 0 C0.33 0.66 0.66 1.32 1 2 C0.06553465 4.03144641 -0.93224776 6.03533587 -2 8 C-2.99 8 -3.98 8 -5 8 C-3.8141763 4.62496331 -2.72426311 2.35277269 0 0 Z " fill="#F7C32C" transform="translate(57,52)"/>
<path d="M0 0 C2.32947183 2.11770166 3.88750845 4.03335588 5 7 C4.67 7.99 4.34 8.98 4 10 C0 4.5 0 4.5 0 0 Z " fill="#FCE893" transform="translate(526,60)"/>
<path d="M0 0 C2.97 0.495 2.97 0.495 6 1 C6.33 1.99 6.66 2.98 7 4 C4.625 3.6875 4.625 3.6875 2 3 C1.34 2.01 0.68 1.02 0 0 Z " fill="#F4D96E" transform="translate(62,361)"/>
</svg>
